<svg width="1024" height="277" viewBox="0 0 1024 277" fill="none" xmlns="http://www.w3.org/2000/svg">
<g clip-path="url(#clip0)">
<path d="M140.803 258.904C125.399 261.609 109.724 262.42 93.509 264.58L44.051 119.724V270.797C28.647 272.418 14.594 274.58 0 276.742V0H41.08L97.292 157.021V0H140.803V258.904ZM225.934 101.346C242.691 101.346 268.365 100.535 283.769 100.535V143.775C264.58 143.775 242.15 143.775 225.934 144.586V208.908C251.339 207.287 276.743 205.123 302.416 204.312V245.929L182.692 255.39V0H302.416V43.241H225.934V101.346V101.346ZM463.218 43.242H418.356V242.15C403.762 242.15 389.168 242.15 375.117 242.689V43.242H330.255V0H463.22L463.218 43.242V43.242ZM533.484 98.374H592.671V141.614H533.484V239.718H491.051V0H611.859V43.241H533.484V98.374V98.374ZM682.125 201.881C706.719 202.42 731.581 204.315 755.635 205.664V248.365C716.989 245.931 678.342 243.502 638.885 242.689V0H682.125V201.881ZM792.119 251.338C805.902 252.15 820.496 252.961 834.549 254.58V0H792.119V251.338V251.338ZM1024 0L969.137 131.615L1024 276.742C1007.78 274.58 991.568 271.607 975.352 268.904L944.274 188.91L912.657 262.42C896.979 259.715 881.845 258.904 866.173 256.742L921.845 129.992L871.576 0H918.058L946.435 72.699L976.705 0H1024V0Z" fill="#D81F26"/>
<path d="M329.524 183.364C332.377 146.202 308.09 125.134 268.953 125.134C229.962 125.134 194.849 150.591 186.729 199.75C178.462 250.665 205.675 279.048 247.885 279.048C290.826 279.048 316.869 248.324 323.087 222.866H282.121C277.951 235.449 266.539 243.642 250.226 243.642C231.718 243.642 223.525 230.767 227.695 204.432C232.303 177.219 247.227 160.54 268.66 160.54C283.511 160.54 289.948 169.611 288.851 183.364H329.524Z" fill="white"/>
<path d="M316.135 277H417.379L422.939 244.227H362.368L381.68 127.182H341.007L316.135 277Z" fill="white"/>
<path d="M568.64 204.724C577.126 153.517 548.742 125.134 506.898 125.134C467.103 125.134 431.697 151.176 423.796 200.043C415.31 250.957 443.694 279.048 485.83 279.048C525.333 279.048 560.447 253.591 568.64 204.724ZM527.674 200.043C522.992 227.841 508.654 243.642 487.293 243.642C468.566 243.642 460.08 230.767 464.762 204.724C469.151 176.926 483.782 160.54 505.435 160.54C524.455 160.54 531.771 174.293 527.674 200.043Z" fill="white"/>
<path d="M713.482 127.182H672.808L659.933 205.602H658.763L618.382 127.182H583.854L558.981 277H599.655L612.822 198.287H613.7L654.666 277H688.609L713.482 127.182Z" fill="white"/>
<path d="M691.369 277H799.051L804.61 244.227H737.602L741.698 218.477H803.44L808.999 185.705H747.258L751.355 159.955H818.656L824.215 127.182H716.241L691.369 277Z" fill="white"/>
</g>
<defs>
<clipPath id="clip0">
<rect width="1024" height="276.742" fill="white"/>
</clipPath>
</defs>
</svg>
